# xmcd
#
# Track frame offsets:
#	150
#	30346
#	53246
#	71819
#	91000
#	111371
#	129323
#	159509
#	178589
#	198520
#	228971
#	257566
#
# Disc length: 3783 seconds
#
# Revision: 1
# Processed by: cddbd v1.5.2PL0 Copyright (c) Steve Scherf et al.
# Submitted via: audiograbber 1.83.01
#
DISCID=980ec50c
DTITLE=Mike Cowie - Big Night Out
DYEAR=2001
DGENRE=R&B
TTITLE0=R U Ready 4 This?
TTITLE1=Get Up!
TTITLE2=Laid Back
TTITLE3=Mother Necessity
TTITLE4=Somebody Up There Likes Me
TTITLE5=Freaks
TTITLE6=Mr. Happy
TTITLE7=I'll Be There For You
TTITLE8=Miles
TTITLE9=Hold Me Close
TTITLE10=MBluez
TTITLE11=Bonus Track
EXTD=
EXTT0=
EXTT1=
EXTT2=
EXTT3=
EXTT4=
EXTT5=
EXTT6=
EXTT7=
EXTT8=
EXTT9=
EXTT10=
EXTT11=
PLAYORDER=
